# xmcd
# 
# Track frame offsets:
#     150
#     17541
#     32546
#     49223
#     63790
#     81826
#     99856
#     117637
#     146377
#     157184
#     174290
#     199608
# 
# Disc length: 3029
# 
# Revision: 0
# Processed by: cddbd v1.5.1PL0 Copyright (c) Steve Scherf et al.
# Submitted via: BonkEnc v1.0beta3
# 
DISCID=920bd30c
DTITLE=PJ Harvey - Stories from teh city stories from the sea
DYEAR=1900
DGENRE=Blues
TTITLE0=Big Exit
TTITLE1=Good Fortune
TTITLE2=A place called home
TTITLE3=One line
TTITLE4=Beatiful feeling
TTITLE5=The whores hustle and the huslers whore
TTITLE6=This mess we're in
TTITLE7=You said something
TTITLE8=Kamikaze
TTITLE9=This is love
TTITLE10=Horses in my dream
TTITLE11=We float
EXTD=
EXTT0=
EXTT1=
EXTT2=
EXTT3=
EXTT4=
EXTT5=
EXTT6=
EXTT7=
EXTT8=
EXTT9=
EXTT10=
EXTT11=
PLAYORDER=
